<?xml version="1.0" encoding="utf-8"?>
<!-- Generator: Adobe Illustrator 15.0.0, SVG Export Plug-In . SVG Version: 6.00 Build 0)  -->
<!DOCTYPE svg PUBLIC "-//W3C//DTD SVG 1.0//EN" "http://www.w3.org/TR/2001/REC-SVG-20010904/DTD/svg10.dtd">
<svg version="1.0" id="svg2" xmlns:svg="http://www.w3.org/2000/svg"
	 xmlns="http://www.w3.org/2000/svg" xmlns:xlink="http://www.w3.org/1999/xlink" x="0px" y="0px" width="1094.8px"
	 height="388.7px" viewBox="0 0 1094.8 388.7" enable-background="new 0 0 1094.8 388.7" xml:space="preserve">
<g id="g2337" transform="matrix(3.1826893,0,0,3.1826893,-856.12546,-2701.34)">
	<rect id="rect2339" x="269" y="853.3" fill="#FFFFFF" width="104.2" height="48.2"/>
	<g id="g2341" transform="translate(-338.28062,424.3829)">
		
			<linearGradient id="path2345_1_" gradientUnits="userSpaceOnUse" x1="917.4731" y1="490.5789" x2="1156.2529" y2="490.5789" gradientTransform="matrix(3.1811 0 0 3.1811 -2296.7148 -1075.1295)">
			<stop  offset="0" style="stop-color:#DA251D"/>
			<stop  offset="0.502" style="stop-color:#89211B"/>
		</linearGradient>
		<path id="path2345" fill="url(#path2345_1_)" d="M607.3,524.8h82.8l21.3,21.7V477H607.3V524.8L607.3,524.8z M661.4,439.3
			c-1.2,0-2.2,1-2.2,2.2v13.2l0,0c0,5,4.1,9.1,9.1,9.1c5,0,9.1-4.1,9.1-9.1c0-5-4.1-9.1-9.1-9.1c-1.7,0-3.3,0.5-4.6,1.3v-5.4
			C663.6,440.3,662.6,439.3,661.4,439.3L661.4,439.3z M668.3,450.1c2.6,0,4.6,2.1,4.6,4.6c0,2.6-2.1,4.6-4.6,4.6
			c-2.6,0-4.6-2.1-4.6-4.6C663.6,452.2,665.7,450.1,668.3,450.1L668.3,450.1z M681.9,445.7c-1.2,0-2.2,1-2.2,2.2v7.6
			c0,2.7,0.4,6.5,3.6,8.1c1.1,0.5,2.4,0.1,3-1c0.5-1.1,0.1-2.4-1-3c-0.3-0.1-1.2-0.6-1.2-4.1v-7.6
			C684.1,446.7,683.1,445.7,681.9,445.7L681.9,445.7z M681.9,439.3c-1.3,0-2.4,1.1-2.4,2.4c0,1.3,1.1,2.4,2.4,2.4
			c1.3,0,2.4-1.1,2.4-2.4C684.4,440.4,683.3,439.3,681.9,439.3z M693.4,467.4v-4.9c1.4,0.8,2.9,1.3,4.6,1.3c5,0,9.1-4.1,9.1-9.1
			c0-5-4.1-9.1-9.1-9.1c-5,0-9.1,4.1-9.1,9.1v12.7c0,1.2,1,2.2,2.2,2.2C692.4,469.7,693.4,468.7,693.4,467.4L693.4,467.4z
			 M698,450.1c2.6,0,4.6,2.1,4.6,4.6c0,2.6-2.1,4.6-4.6,4.6c-2.6,0-4.6-2.1-4.6-4.6C693.4,452.2,695.4,450.1,698,450.1L698,450.1z
			 M607.3,424.4v4.5h104.2v-4.5H607.3z"/>
		<g id="g2347">
			<path id="path2349" fill="#FFFFFF" d="M723.4,449c-3.7,0-5-2.3-5-5.7v-13.4h2.5v7.6h0.1c0.6-1.3,1.9-2.1,3.4-2.1
				c3.8,0,4.4,4,4.4,6.9C728.6,446,727.4,449,723.4,449L723.4,449z M723.5,437.4c-2.1,0-2.8,3.2-2.8,4.9c0,1.8-0.1,4.9,2.5,4.9
				c2.4,0,2.7-3.1,2.7-4.8C725.9,440.8,725.7,437.4,723.5,437.4L723.5,437.4z"/>
			<path id="path2351" fill="#FFFFFF" d="M732,432.7v-2.8h2.9v2.8H732z M732.3,448.7v-13h2.5v13H732.3z"/>
			<path id="path2353" fill="#FFFFFF" d="M746.8,448.7v-2.8h-0.1c-0.7,1.8-2.1,3.1-4.1,3.1c-2.6,0-3.5-2-3.5-4.3v-9h2.5v7.1
				c0,0.5,0,1.1,0,1.6c0.1,1.2,0.4,2.1,1.7,2.1c2.4,0,3.4-3.4,3.4-5.3v-5.5h2.5v13H746.8L746.8,448.7z"/>
			<polygon id="polygon2355" fill="#FFFFFF" points="754,448.7 754,429.9 756.5,429.9 756.5,448.7 			"/>
			<path id="path2357" fill="#FFFFFF" d="M762.6,441.3c0,2.9,1.5,5.8,4.8,5.8c0.9,0,1.7-0.2,2.5-0.5v1.9c-1.1,0.2-2.1,0.4-3.2,0.4
				c-4.6,0-6.4-3.2-6.4-7.4c0-3.5,1.6-6.2,5.3-6.2c3.2,0,4.7,2.2,4.7,5.2v0.6L762.6,441.3L762.6,441.3z M767.7,439.7
				c0-1.4-1-2.3-2.4-2.3c-1.1,0-2,0.5-2.4,1.5c-0.1,0.2-0.2,0.5-0.2,0.8H767.7L767.7,439.7z"/>
			<path id="path2359" fill="#FFFFFF" d="M776.9,437.7v6.9c0,1.4,0.4,2.5,2.1,2.5c0.4,0,0.9-0.1,1.3-0.2v1.9
				c-0.6,0.1-1.3,0.2-1.9,0.2c-2.3,0-3.9-0.7-3.9-3.2v-8.2h-2.3v-1.9h2.3v-3.1l2.5-1.5v4.6h3.6v1.9L776.9,437.7L776.9,437.7z"/>
			<polygon id="polygon2361" fill="#FFFFFF" points="786.9,454.3 784.5,454.3 786.3,448.8 781.4,435.8 784.1,435.8 787.5,445.1 
				787.5,445.1 790.6,435.8 793.3,435.8 			"/>
			<path id="path2363" fill="#FFFFFF" d="M803.3,448.7v-7.1c0-0.5,0-1.1,0-1.6c-0.1-1.2-0.4-2.1-1.7-2.1c-2.4,0-3.4,3.4-3.4,5.3v5.5
				h-2.5v-13h2.5v2.8h0.099c0.7-1.9,2.1-3.1,4.1-3.1c2.6,0,3.5,2,3.5,4.3v9L803.3,448.7L803.3,448.7z"/>
			<path id="path2365" fill="#FFFFFF" d="M718.6,460.7V458h2.9v2.8h-2.9V460.7z M718.9,476.8v-13h2.5v13H718.9z"/>
			<path id="path2367" fill="#FFFFFF" d="M733.6,476.8v-7.1c0-0.5,0-1.1,0-1.6c-0.1-1.2-0.4-2.1-1.7-2.1c-2.4,0-3.4,3.4-3.4,5.3v5.5
				H726v-13h2.5v2.8h0.1c0.7-1.9,2.1-3.1,4.1-3.1c2.6,0,3.5,2,3.5,4.3v9L733.6,476.8L733.6,476.8z"/>
			<path id="path2369" fill="#FFFFFF" d="M748.9,460c-0.8-0.2-1.7-0.4-2.6-0.4c-1.7,0-2.5,1.3-2.5,2.9v1.3h3.9v1.9h-3.9v11.1h-2.5
				v-11.1H739v-1.9h2.3v-1.5c0-3.2,1.9-4.6,5-4.6c0.9,0,1.8,0.1,2.6,0.2V460L748.9,460z"/>
			<path id="path2371" fill="#FFFFFF" d="M755,477.1c-4.2,0-5.8-3-5.8-6.8c0-3.8,1.6-6.8,5.8-6.8c4.1,0,5.7,3,5.7,6.8
				C760.8,474.1,759.2,477.1,755,477.1z M755,465.4c-2.7,0-3,2.8-3,4.9c0,2.1,0.3,4.9,3,4.9c2.7,0,3-2.8,3-4.9
				C758,468.2,757.7,465.4,755,465.4z"/>
			<path id="path2373" fill="#FFFFFF" d="M770.6,466.2c-3.1,0-4.1,2.3-4.1,5.1v5.5H764v-13h2.5v2.6h0.1c0.6-1.8,2.1-2.9,4-2.9V466.2
				L770.6,466.2z"/>
			<path id="path2375" fill="#FFFFFF" d="M787.7,476.8v-7.1c0-0.5,0-1,0-1.5c-0.099-1.3-0.299-2.2-1.8-2.2c-1.9,0-2.9,3.1-2.9,4.6
				v6.2h-2.5v-7.1c0-0.5,0-1,0-1.5c-0.1-1.2-0.2-2.2-1.7-2.2c-2.2,0-2.9,3.7-2.9,5.3v5.5h-2.5v-13h2.5v2.6h0.1
				c0.6-1.6,1.7-2.9,3.6-2.9c1.8,0,3.1,1,3.3,2.8H783c0.7-1.6,1.901-2.8,3.7-2.8c2.599,0,3.5,2,3.5,4.3v9L787.7,476.8L787.7,476.8z"
				/>
			<path id="path2377" fill="#FFFFFF" d="M800.7,476.8v-1.6H800.6c-0.6,1.2-2.001,1.9-3.4,1.9c-2.2,0-3.7-1.3-3.7-3.5
				c0-3.7,4.3-4.3,7.1-4.3V467c0-0.1-0.099-0.3-0.099-0.4c-0.3-0.9-1-1.2-1.901-1.2c-1.3,0-2.1,0.7-2.1,2H794
				c0-2.9,2.299-3.9,4.9-3.9c2.8,0,4.3,1.4,4.3,4.2v9.1H800.7L800.7,476.8z M800.7,471h-0.5c-1.5,0-3.9,0.7-3.9,2.5
				c0,0.8,0.5,1.7,1.4,1.7c1.7,0,2.9-1.9,2.9-3.5V471H800.7z"/>
			<path id="path2379" fill="#FFFFFF" d="M813.7,468c0-1.3-0.399-2.6-2-2.6c-2.1,0-2.6,2.3-2.6,4c0,3.3,1.6,5.8,5.2,5.8
				c0.7,0,1.4-0.1,2.1-0.3v1.7c-1.2,0.4-2.4,0.5-3.6,0.5c-4.4,0-6.3-3.2-6.3-7.2c0-3.6,1.6-6.3,5.5-6.3c2.9,0,4.6,1.6,4.6,4.5h-2.9
				V468z"/>
			<path id="path2381" fill="#FFFFFF" d="M822.1,477.9c0,3.5-2.599,4.7-5.8,4.7c-0.2,0-0.5,0-0.7-0.1v-1.9c0.3,0.1,0.7,0.1,1,0.1
				c2.7,0,3-1.6,3-3.8v-13.1h2.499V477.9L822.1,477.9z M819.4,460.7V458h2.9v2.8h-2.9V460.7z"/>
			<path id="path2383" fill="#FFFFFF" d="M826.5,460.7V458h2.9v2.8h-2.9V460.7z M826.8,476.8v-13h2.5v13H826.8z"/>
			<path id="path2385" fill="#FFFFFF" d="M848.2,477.1c-1.5,0-2.9-0.7-3.5-2.1h-0.1v7.6h-2.5v-18.8h2.5v2h0.1
				c0.6-1.4,2.1-2.3,3.6-2.3c3.6,0,4.4,3.7,4.4,6.6C852.7,473,851.9,477.1,848.2,477.1L848.2,477.1z M847.4,465.4
				c-2.2,0-2.8,3.2-2.8,4.9c0,1.8,0.4,4.9,2.8,4.9c2.3,0,2.5-3.2,2.5-4.9C850,468.5,849.8,465.4,847.4,465.4L847.4,465.4z"/>
			<path id="path2387" fill="#FFFFFF" d="M863.6,476.8V474h-0.1c-0.7,1.8-2.1,3.1-4.1,3.1c-2.599,0-3.5-2-3.5-4.3v-9h2.5v7.1
				c0,0.5,0,1.1,0,1.6c0.1,1.2,0.4,2.1,1.7,2.1c2.4,0,3.4-3.4,3.4-5.3v-5.5h2.5v13H863.6L863.6,476.8z"/>
			<path id="path2389" fill="#FFFFFF" d="M875.3,477.1c-3.7,0-5-2.3-5-5.7V458h2.5v7.6h0.1c0.6-1.3,1.9-2.1,3.4-2.1
				c3.8,0,4.4,4,4.4,6.9C880.5,474,879.3,477.1,875.3,477.1L875.3,477.1z M875.4,465.4c-2.1,0-2.8,3.2-2.8,4.9
				c0,1.8-0.1,4.9,2.5,4.9c2.4,0,2.7-3.1,2.7-4.8C877.8,468.8,877.6,465.4,875.4,465.4L875.4,465.4z"/>
			<polygon id="polygon2391" fill="#FFFFFF" points="884.2,476.8 884.2,458 886.6,458 886.6,476.8 			"/>
			<path id="path2393" fill="#FFFFFF" d="M891.2,460.7V458h2.9v2.8h-2.9V460.7z M891.5,476.8v-13h2.5v13H891.5z"/>
			<path id="path2395" fill="#FFFFFF" d="M905,468c0-1.3-0.4-2.6-2-2.6c-2.1,0-2.6,2.3-2.6,4c0,3.3,1.6,5.8,5.2,5.8
				c0.7,0,1.4-0.1,2.1-0.3v1.7c-1.2,0.4-2.4,0.5-3.6,0.5c-4.4,0-6.3-3.2-6.3-7.2c0-3.6,1.6-6.3,5.5-6.3c2.9,0,4.6,1.6,4.6,4.5H905
				V468z"/>
			<polygon id="polygon2397" fill="#FFFFFF" points="908.9,476.8 908.9,474.9 915.2,465.7 909.3,465.7 909.3,463.8 918.2,463.8 
				918.2,465.7 911.9,474.9 918.4,474.9 918.4,476.8 			"/>
			<path id="path2399" fill="#FFFFFF" d="M929,476.8v-7.1c0-0.5,0-1.1,0-1.6c-0.1-1.2-0.4-2.1-1.7-2.1c-2.4,0-3.4,3.4-3.4,5.3v5.5
				h-2.5v-13h2.5v2.8h0.1c0.7-1.9,2.1-3.1,4.1-3.1c2.6,0,3.5,2,3.5,4.3v9L929,476.8L929,476.8z"/>
			<path id="path2401" fill="#FFFFFF" d="M937.2,469.3c0,2.9,1.5,5.8,4.8,5.8c0.9,0,1.7-0.2,2.5-0.5v1.9c-1.1,0.2-2.1,0.4-3.2,0.4
				c-4.6,0-6.4-3.2-6.4-7.4c0-3.5,1.6-6.2,5.3-6.2c3.2,0,4.7,2.2,4.7,5.2v0.6h-7.7V469.3z M942.3,467.7c0-1.4-1-2.3-2.4-2.3
				c-1.1,0-2,0.5-2.4,1.5c-0.1,0.2-0.2,0.5-0.2,0.8H942.3L942.3,467.7z"/>
			<path id="path2403" fill="#FFFFFF" d="M951,477.9c0,3.5-2.6,4.7-5.8,4.7c-0.2,0-0.5,0-0.7-0.1v-1.9c0.3,0.1,0.7,0.1,1,0.1
				c2.7,0,3-1.6,3-3.8v-13.1h2.5V477.9L951,477.9z M948.3,460.7V458h2.9v2.8h-2.9V460.7z"/>
		</g>
	</g>
</g>
</svg>
